<svg xmlns="http://www.w3.org/2000/svg" xmlns:xlink="http://www.w3.org/1999/xlink" contentStyleType="text/css" height="398px" preserveAspectRatio="none" style="width:750px;height:398px;background:#FFFFFF;" version="1.1" viewBox="0 0 750 398" width="750px" zoomAndPan="magnify"><defs/><g><!--cluster Frontend--><g id="cluster_Frontend"><path d="M261.5,288.732 L326.8158,288.732 A3.75,3.75 0 0 1 329.3158,291.232 L336.3158,313.7999 L422.5,313.7999 A2.5,2.5 0 0 1 425,316.2999 L425,389.302 A2.5,2.5 0 0 1 422.5,391.802 L261.5,391.802 A2.5,2.5 0 0 1 259,389.302 L259,291.232 A2.5,2.5 0 0 1 261.5,288.732 " fill="none" style="stroke:#000000;stroke-width:1.5;"/><line style="stroke:#000000;stroke-width:1.5;" x1="259" x2="336.3158" y1="313.7999" y2="313.7999"/><text fill="#000000" font-family="sans-serif" font-size="14" font-weight="bold" lengthAdjust="spacing" textLength="64.3158" x="263" y="305.6979">Frontend</text></g><!--cluster Backend--><g id="cluster_Backend"><path d="M8.5,6.602 L69.5738,6.602 A3.75,3.75 0 0 1 72.0738,9.102 L79.0738,31.6699 L740.5,31.6699 A2.5,2.5 0 0 1 743,34.1699 L743,235.232 A2.5,2.5 0 0 1 740.5,237.732 L8.5,237.732 A2.5,2.5 0 0 1 6,235.232 L6,9.102 A2.5,2.5 0 0 1 8.5,6.602 " fill="none" style="stroke:#000000;stroke-width:1.5;"/><line style="stroke:#000000;stroke-width:1.5;" x1="6" x2="79.0738" y1="31.6699" y2="31.6699"/><text fill="#000000" font-family="sans-serif" font-size="14" font-weight="bold" lengthAdjust="spacing" textLength="60.0738" x="10" y="23.5679">Backend</text></g><!--entity User Interface--><g id="elem_User Interface"><rect fill="#F1F1F1" height="49.0679" rx="2.5" ry="2.5" style="stroke:#181818;stroke-width:0.5;" width="133.6736" x="275.16" y="326.732"/><rect fill="#F1F1F1" height="10" style="stroke:#181818;stroke-width:0.5;" width="15" x="388.8336" y="331.732"/><rect fill="#F1F1F1" height="2" style="stroke:#181818;stroke-width:0.5;" width="4" x="386.8336" y="333.732"/><rect fill="#F1F1F1" height="2" style="stroke:#181818;stroke-width:0.5;" width="4" x="386.8336" y="337.732"/><text fill="#000000" font-family="sans-serif" font-size="14" lengthAdjust="spacing" textLength="93.6736" x="290.16" y="361.6979">User Interface</text></g><!--entity Go Server--><g id="elem_Go Server"><rect fill="#F1F1F1" height="49.0679" rx="2.5" ry="2.5" style="stroke:#181818;stroke-width:0.5;" width="104.4557" x="289.77" y="44.602"/><rect fill="#F1F1F1" height="10" style="stroke:#181818;stroke-width:0.5;" width="15" x="374.2257" y="49.602"/><rect fill="#F1F1F1" height="2" style="stroke:#181818;stroke-width:0.5;" width="4" x="372.2257" y="51.602"/><rect fill="#F1F1F1" height="2" style="stroke:#181818;stroke-width:0.5;" width="4" x="372.2257" y="55.602"/><text fill="#000000" font-family="sans-serif" font-size="14" lengthAdjust="spacing" textLength="64.4557" x="304.77" y="79.5679">Go Server</text></g><!--entity Nginx--><g id="elem_Nginx"><rect fill="#F1F1F1" height="49.0679" rx="2.5" ry="2.5" style="stroke:#181818;stroke-width:0.5;" width="78.9198" x="302.54" y="172.662"/><rect fill="#F1F1F1" height="10" style="stroke:#181818;stroke-width:0.5;" width="15" x="361.4598" y="177.662"/><rect fill="#F1F1F1" height="2" style="stroke:#181818;stroke-width:0.5;" width="4" x="359.4598" y="179.662"/><rect fill="#F1F1F1" height="2" style="stroke:#181818;stroke-width:0.5;" width="4" x="359.4598" y="183.662"/><text fill="#000000" font-family="sans-serif" font-size="14" lengthAdjust="spacing" textLength="38.9198" x="317.54" y="207.6279">Nginx</text></g><!--entity PostgreSQL--><g id="elem_PostgreSQL"><rect fill="#F1F1F1" height="49.0679" rx="2.5" ry="2.5" style="stroke:#181818;stroke-width:0.5;" width="116.9437" x="21.53" y="172.662"/><rect fill="#F1F1F1" height="10" style="stroke:#181818;stroke-width:0.5;" width="15" x="118.4737" y="177.662"/><rect fill="#F1F1F1" height="2" style="stroke:#181818;stroke-width:0.5;" width="4" x="116.4737" y="179.662"/><rect fill="#F1F1F1" height="2" style="stroke:#181818;stroke-width:0.5;" width="4" x="116.4737" y="183.662"/><text fill="#000000" font-family="sans-serif" font-size="14" lengthAdjust="spacing" textLength="76.9437" x="36.53" y="207.6279">PostgreSQL</text></g><!--entity Media Storage--><g id="elem_Media Storage"><rect fill="#F1F1F1" height="49.0679" rx="2.5" ry="2.5" style="stroke:#181818;stroke-width:0.5;" width="135.6617" x="505.17" y="172.662"/><rect fill="#F1F1F1" height="10" style="stroke:#181818;stroke-width:0.5;" width="15" x="620.8317" y="177.662"/><rect fill="#F1F1F1" height="2" style="stroke:#181818;stroke-width:0.5;" width="4" x="618.8317" y="179.662"/><rect fill="#F1F1F1" height="2" style="stroke:#181818;stroke-width:0.5;" width="4" x="618.8317" y="183.662"/><text fill="#000000" font-family="sans-serif" font-size="14" lengthAdjust="spacing" textLength="95.6617" x="520.17" y="207.6279">Media Storage</text></g><!--link User Interface to Nginx--><g id="link_User Interface_Nginx"><path d="M311.8,326.422 C296.75,312.572 280.07,293.722 272,272.732 C263.65,251.032 277.1881,235.3508 297.2681,221.9608 " fill="none" id="User Interface-to-Nginx" style="stroke:#181818;stroke-width:1.0;"/><polygon fill="#181818" points="302.26,218.632,292.5529,220.2972,298.1001,221.406,296.9913,226.9531,302.26,218.632" style="stroke:#181818;stroke-width:1.0;"/><text fill="#000000" font-family="sans-serif" font-size="13" lengthAdjust="spacing" textLength="91.2601" x="273" y="268.629">HTTP Requests</text></g><!--link Nginx to User Interface--><g id="link_Nginx_User Interface"><path d="M356.61,222.192 C361.57,231.662 366.5,242.872 369,253.732 C374.78,278.832 367.4608,301.7698 358.0608,321.2198 " fill="none" id="Nginx-to-User Interface" style="stroke:#181818;stroke-width:1.0;"/><polygon fill="#181818" points="355.45,326.622,362.9677,320.2593,357.6257,322.1202,355.7648,316.7782,355.45,326.622" style="stroke:#181818;stroke-width:1.0;"/><text fill="#000000" font-family="sans-serif" font-size="13" lengthAdjust="spacing" textLength="141.9341" x="371.71" y="268.629">Enviar Fragmentos HLS</text></g><!--link Nginx to Go Server--><g id="link_Nginx_Go Server"><path d="M366.94,172.252 C374.2,163.692 381.2,153.462 385,142.662 C391.07,125.402 384.9183,112.2111 372.9883,98.6211 " fill="none" id="Nginx-to-Go Server" style="stroke:#181818;stroke-width:1.0;"/><polygon fill="#181818" points="369.03,94.112,371.9614,103.5145,372.3286,97.8696,377.9735,98.2367,369.03,94.112" style="stroke:#181818;stroke-width:1.0;"/><text fill="#000000" font-family="sans-serif" font-size="13" lengthAdjust="spacing" textLength="107.6141" x="387.82" y="138.559">Redirigir Solicitud</text></g><!--link Go Server to Nginx--><g id="link_Go Server_Nginx"><path d="M289.39,90.502 C275.4,98.612 261.97,109.482 254,123.662 C239.4,149.642 266.8503,167.8134 296.5103,180.3034 " fill="none" id="Go Server-to-Nginx" style="stroke:#181818;stroke-width:1.0;"/><polygon fill="#181818" points="302.04,182.632,295.2978,175.4526,297.4319,180.6915,292.193,182.8256,302.04,182.632" style="stroke:#181818;stroke-width:1.0;"/><text fill="#000000" font-family="sans-serif" font-size="13" lengthAdjust="spacing" textLength="121.6411" x="255" y="138.559">Responder Solicitud</text></g><!--link Go Server to PostgreSQL--><g id="link_Go Server_PostgreSQL"><path d="M289.28,73.152 C220.04,78.332 104.16,91.672 78,123.662 C67.08,137.032 67.0667,151.0166 70.6667,166.5666 " fill="none" id="Go Server-to-PostgreSQL" style="stroke:#181818;stroke-width:1.0;"/><polygon fill="#181818" points="72.02,172.412,73.887,162.7417,70.8923,167.5408,66.0932,164.5461,72.02,172.412" style="stroke:#181818;stroke-width:1.0;"/><text fill="#000000" font-family="sans-serif" font-size="13" lengthAdjust="spacing" textLength="162.9161" x="79" y="138.559">Consultar/Actualizar Datos</text></g><!--link Go Server to Media Storage--><g id="link_Go Server_Media Storage"><path d="M394.46,80.542 C427.66,88.752 470.47,102.422 504,123.662 C524.26,136.502 538.9631,151.9118 551.6831,167.6818 " fill="none" id="Go Server-to-Media Storage" style="stroke:#181818;stroke-width:1.0;"/><polygon fill="#181818" points="555.45,172.352,552.9131,162.8355,552.3109,168.4602,546.6862,167.858,555.45,172.352" style="stroke:#181818;stroke-width:1.0;"/><text fill="#000000" font-family="sans-serif" font-size="13" lengthAdjust="spacing" textLength="152.7112" x="528.64" y="138.559">Solicitar Fragmentos HLS</text></g><!--SRC=[PK_9JiCm4BtxAvvyhxZdWCHMYbHGgSi9vM35GsGHx31sAWJYtvbOXQRaDijRUzkysfQWbnn3fk0qlXJm_9I8SISNVh4DrO3wLgh_1L_ASCJUHXZYFV48a_sXzU6Z7gTDJBbbCe_hijwJynOcHnQLUbJKfpuQYyKv2h_2QhVRO4ll0wMSL3cMj_xpqvNydMVVUeQ9dMzy7foQ00hXcAB2LGnfwBBbiuic3xRpdvPnRNDCCve-YIjU1mSXBENoHa5OMAtDZ7aeiANKn-1eccrIur_r2ZTXx-VYFm00]--></g></svg>