<svg xmlns="http://www.w3.org/2000/svg" xmlns:xlink="http://www.w3.org/1999/xlink" contentStyleType="text/css" height="568px" preserveAspectRatio="none" style="width:973px;height:568px;background:#FFFFFF;" version="1.1" viewBox="0 0 973 568" width="973px" zoomAndPan="magnify"><defs/><g><line style="stroke:#181818;stroke-width:0.5;stroke-dasharray:5.0,5.0;" x1="23" x2="23" y1="84.0679" y2="484.5401"/><line style="stroke:#181818;stroke-width:0.5;stroke-dasharray:5.0,5.0;" x1="250.2732" x2="250.2732" y1="84.0679" y2="484.5401"/><line style="stroke:#181818;stroke-width:0.5;stroke-dasharray:5.0,5.0;" x1="570.4715" x2="570.4715" y1="84.0679" y2="484.5401"/><line style="stroke:#181818;stroke-width:0.5;stroke-dasharray:5.0,5.0;" x1="805.5867" x2="805.5867" y1="84.0679" y2="484.5401"/><line style="stroke:#181818;stroke-width:0.5;stroke-dasharray:5.0,5.0;" x1="912.5305" x2="912.5305" y1="84.0679" y2="484.5401"/><text fill="#000000" font-family="sans-serif" font-size="14" lengthAdjust="spacing" textLength="30.6179" x="5" y="79.9659">User</text><ellipse cx="23.3089" cy="13.5" fill="#E2E2F0" rx="8" ry="8" style="stroke:#181818;stroke-width:0.5;"/><path d="M23.3089,21.5 L23.3089,48.5 M10.3089,29.5 L36.3089,29.5 M23.3089,48.5 L10.3089,63.5 M23.3089,48.5 L36.3089,63.5 " fill="none" style="stroke:#181818;stroke-width:0.5;"/><text fill="#000000" font-family="sans-serif" font-size="14" lengthAdjust="spacing" textLength="30.6179" x="5" y="498.5061">User</text><ellipse cx="23.3089" cy="511.108" fill="#E2E2F0" rx="8" ry="8" style="stroke:#181818;stroke-width:0.5;"/><path d="M23.3089,519.108 L23.3089,546.108 M10.3089,527.108 L36.3089,527.108 M23.3089,546.108 L10.3089,561.108 M23.3089,546.108 L36.3089,561.108 " fill="none" style="stroke:#181818;stroke-width:0.5;"/><rect fill="#E2E2F0" height="33.0679" rx="2.5" ry="2.5" style="stroke:#181818;stroke-width:0.5;" width="52.9198" x="224.2732" y="50"/><text fill="#000000" font-family="sans-serif" font-size="14" lengthAdjust="spacing" textLength="38.9198" x="231.2732" y="71.9659">Nginx</text><rect fill="#E2E2F0" height="33.0679" rx="2.5" ry="2.5" style="stroke:#181818;stroke-width:0.5;" width="52.9198" x="224.2732" y="483.5401"/><text fill="#000000" font-family="sans-serif" font-size="14" lengthAdjust="spacing" textLength="38.9198" x="231.2732" y="505.5061">Nginx</text><rect fill="#E2E2F0" height="33.0679" rx="2.5" ry="2.5" style="stroke:#181818;stroke-width:0.5;" width="56.1538" x="542.4715" y="50"/><text fill="#000000" font-family="sans-serif" font-size="14" lengthAdjust="spacing" textLength="42.1538" x="549.4715" y="71.9659">Server</text><rect fill="#E2E2F0" height="33.0679" rx="2.5" ry="2.5" style="stroke:#181818;stroke-width:0.5;" width="56.1538" x="542.4715" y="483.5401"/><text fill="#000000" font-family="sans-serif" font-size="14" lengthAdjust="spacing" textLength="42.1538" x="549.4715" y="505.5061">Server</text><text fill="#000000" font-family="sans-serif" font-size="14" lengthAdjust="spacing" textLength="76.9437" x="764.5867" y="79.9659">PostgreSQL</text><path d="M788.0586,29 C788.0586,19 806.0586,19 806.0586,19 C806.0586,19 824.0586,19 824.0586,29 L824.0586,55 C824.0586,65 806.0586,65 806.0586,65 C806.0586,65 788.0586,65 788.0586,55 L788.0586,29 " fill="#E2E2F0" style="stroke:#181818;stroke-width:1.5;"/><path d="M788.0586,29 C788.0586,39 806.0586,39 806.0586,39 C806.0586,39 824.0586,39 824.0586,29 " fill="none" style="stroke:#181818;stroke-width:1.5;"/><text fill="#000000" font-family="sans-serif" font-size="14" lengthAdjust="spacing" textLength="76.9437" x="764.5867" y="498.5061">PostgreSQL</text><path d="M788.0586,512.608 C788.0586,502.608 806.0586,502.608 806.0586,502.608 C806.0586,502.608 824.0586,502.608 824.0586,512.608 L824.0586,538.608 C824.0586,548.608 806.0586,548.608 806.0586,548.608 C806.0586,548.608 788.0586,548.608 788.0586,538.608 L788.0586,512.608 " fill="#E2E2F0" style="stroke:#181818;stroke-width:1.5;"/><path d="M788.0586,512.608 C788.0586,522.608 806.0586,522.608 806.0586,522.608 C806.0586,522.608 824.0586,522.608 824.0586,512.608 " fill="none" style="stroke:#181818;stroke-width:1.5;"/><rect fill="#E2E2F0" height="33.0679" style="stroke:#181818;stroke-width:0.5;" width="106.0217" x="861.5305" y="46"/><rect fill="#E2E2F0" height="33.0679" style="stroke:#181818;stroke-width:0.5;" width="106.0217" x="857.5305" y="50"/><text fill="#000000" font-family="sans-serif" font-size="14" lengthAdjust="spacing" textLength="92.0217" x="864.5305" y="71.9659">MediaStorage</text><rect fill="#E2E2F0" height="33.0679" style="stroke:#181818;stroke-width:0.5;" width="106.0217" x="861.5305" y="483.5401"/><rect fill="#E2E2F0" height="33.0679" style="stroke:#181818;stroke-width:0.5;" width="106.0217" x="857.5305" y="487.5401"/><text fill="#000000" font-family="sans-serif" font-size="14" lengthAdjust="spacing" textLength="92.0217" x="864.5305" y="509.5061">MediaStorage</text><polygon fill="#181818" points="238.7332,113.7739,248.7332,117.7739,238.7332,121.7739,242.7332,117.7739" style="stroke:#181818;stroke-width:1.0;"/><line style="stroke:#181818;stroke-width:1.0;" x1="23.3089" x2="244.7332" y1="117.7739" y2="117.7739"/><text fill="#000000" font-family="sans-serif" font-size="13" lengthAdjust="spacing" textLength="173.5372" x="30.3089" y="111.9649">Enviar solicitud destreaming</text><polygon fill="#181818" points="558.5484,145.4799,568.5484,149.4799,558.5484,153.4799,562.5484,149.4799" style="stroke:#181818;stroke-width:1.0;"/><line style="stroke:#181818;stroke-width:1.0;" x1="250.7332" x2="564.5484" y1="149.4799" y2="149.4799"/><text fill="#000000" font-family="sans-serif" font-size="13" lengthAdjust="spacing" textLength="295.8152" x="257.7332" y="143.6709">Redirigir solicitud de streaming (Load Balancing)</text><polygon fill="#181818" points="794.0586,177.186,804.0586,181.186,794.0586,185.186,798.0586,181.186" style="stroke:#181818;stroke-width:1.0;"/><line style="stroke:#181818;stroke-width:1.0;" x1="570.5484" x2="800.0586" y1="181.186" y2="181.186"/><text fill="#000000" font-family="sans-serif" font-size="13" lengthAdjust="spacing" textLength="211.5102" x="577.5484" y="175.377">Consultar metadatos de contenido</text><polygon fill="#181818" points="581.5484,208.892,571.5484,212.892,581.5484,216.892,577.5484,212.892" style="stroke:#181818;stroke-width:1.0;"/><line style="stroke:#181818;stroke-width:1.0;" x1="575.5484" x2="805.0586" y1="212.892" y2="212.892"/><text fill="#000000" font-family="sans-serif" font-size="13" lengthAdjust="spacing" textLength="122.8761" x="587.5484" y="207.083">Devolver metadatos</text><polygon fill="#181818" points="261.7332,240.598,251.7332,244.598,261.7332,248.598,257.7332,244.598" style="stroke:#181818;stroke-width:1.0;"/><line style="stroke:#181818;stroke-width:1.0;" x1="255.7332" x2="569.5484" y1="244.598" y2="244.598"/><text fill="#000000" font-family="sans-serif" font-size="13" lengthAdjust="spacing" textLength="122.8761" x="267.7332" y="238.789">Devolver metadatos</text><polygon fill="#181818" points="34.3089,272.304,24.3089,276.304,34.3089,280.304,30.3089,276.304" style="stroke:#181818;stroke-width:1.0;"/><line style="stroke:#181818;stroke-width:1.0;" x1="28.3089" x2="249.7332" y1="276.304" y2="276.304"/><text fill="#000000" font-family="sans-serif" font-size="13" lengthAdjust="spacing" textLength="122.8761" x="40.3089" y="270.495">Devolver metadatos</text><polygon fill="#181818" points="238.7332,304.01,248.7332,308.01,238.7332,312.01,242.7332,308.01" style="stroke:#181818;stroke-width:1.0;"/><line style="stroke:#181818;stroke-width:1.0;" x1="23.3089" x2="244.7332" y1="308.01" y2="308.01"/><text fill="#000000" font-family="sans-serif" font-size="13" lengthAdjust="spacing" textLength="150.4361" x="30.3089" y="302.201">Solicitar fragmentos HLS</text><polygon fill="#181818" points="558.5484,335.716,568.5484,339.716,558.5484,343.716,562.5484,339.716" style="stroke:#181818;stroke-width:1.0;"/><line style="stroke:#181818;stroke-width:1.0;" x1="250.7332" x2="564.5484" y1="339.716" y2="339.716"/><text fill="#000000" font-family="sans-serif" font-size="13" lengthAdjust="spacing" textLength="150.4361" x="257.7332" y="333.907">Solicitar fragmentos HLS</text><polygon fill="#181818" points="900.5413,367.4221,910.5413,371.4221,900.5413,375.4221,904.5413,371.4221" style="stroke:#181818;stroke-width:1.0;"/><line style="stroke:#181818;stroke-width:1.0;" x1="570.5484" x2="906.5413" y1="371.4221" y2="371.4221"/><text fill="#000000" font-family="sans-serif" font-size="13" lengthAdjust="spacing" textLength="150.4361" x="577.5484" y="365.6131">Solicitar fragmentos HLS</text><polygon fill="#181818" points="581.5484,399.1281,571.5484,403.1281,581.5484,407.1281,577.5484,403.1281" style="stroke:#181818;stroke-width:1.0;"/><line style="stroke:#181818;stroke-width:1.0;" x1="575.5484" x2="911.5413" y1="403.1281" y2="403.1281"/><text fill="#000000" font-family="sans-serif" font-size="13" lengthAdjust="spacing" textLength="155.7271" x="587.5484" y="397.3191">Devolver fragmentos HLS</text><polygon fill="#181818" points="261.7332,430.8341,251.7332,434.8341,261.7332,438.8341,257.7332,434.8341" style="stroke:#181818;stroke-width:1.0;"/><line style="stroke:#181818;stroke-width:1.0;" x1="255.7332" x2="569.5484" y1="434.8341" y2="434.8341"/><text fill="#000000" font-family="sans-serif" font-size="13" lengthAdjust="spacing" textLength="203.4242" x="267.7332" y="429.0251">Enviar fragmentos HLS (v&#237;a HTTP)</text><polygon fill="#181818" points="34.3089,462.5401,24.3089,466.5401,34.3089,470.5401,30.3089,466.5401" style="stroke:#181818;stroke-width:1.0;"/><line style="stroke:#181818;stroke-width:1.0;" x1="28.3089" x2="249.7332" y1="466.5401" y2="466.5401"/><text fill="#000000" font-family="sans-serif" font-size="13" lengthAdjust="spacing" textLength="203.4242" x="40.3089" y="460.7311">Enviar fragmentos HLS (v&#237;a HTTP)</text><!--SRC=[ZLFBRi8m4BpxA_O672hkI5HgAH87YcX3Ur_i9RNas97jHFsTVa2_WX-h3OWuZvPUB7arEpix7YFtniAR8yjOFE7k7ZQvr9ypMEfQeWLdbEJILm84EMy92wbpTi94S4Qs9Zk3LnBIobos6-3Q0UErGG6Fg53pS9ymWHxtw0YsnldSKlQoPcUsoDiKPx0msbNA1p45UGnznaLkRhGdBOLX3JYLz4IrKP7ksfNmNvOSm5nNYtuC8Zf6PUU5Wxo3nRmW7VMjrbdVf5-Ht2X5tCkmA3m79p4Bpu8v9OBJyXzCAMpGZ0v-Ee9cnWBvHo1_K0LoqctoqfILGaiEngRaGIcg2OocVKilkMdFWN5z_4POxNRRITVXsmrHvNn-aXUZjDIuLoH2gViKcufgJ19OeiKc9y3ZVXW2yv_uifulxsJbGVBuAIIGIeZ3ppX-0Udp17R23xe_eAKPqxAZZunk_m00]--></g></svg>