<svg xmlns="http://www.w3.org/2000/svg" xmlns:xlink="http://www.w3.org/1999/xlink" contentStyleType="text/css" height="718px" preserveAspectRatio="none" style="width:680px;height:718px;background:#FFFFFF;" version="1.1" viewBox="0 0 680 718" width="680px" zoomAndPan="magnify"><defs/><g><!--cluster Frontend--><g id="cluster_Frontend"><path d="M8.5,6.602 L73.8158,6.602 A3.75,3.75 0 0 1 76.3158,9.102 L83.3158,31.6699 L169.5,31.6699 A2.5,2.5 0 0 1 172,34.1699 L172,107.172 A2.5,2.5 0 0 1 169.5,109.672 L8.5,109.672 A2.5,2.5 0 0 1 6,107.172 L6,9.102 A2.5,2.5 0 0 1 8.5,6.602 " fill="none" style="stroke:#000000;stroke-width:1.5;"/><line style="stroke:#000000;stroke-width:1.5;" x1="6" x2="83.3158" y1="31.6699" y2="31.6699"/><text fill="#000000" font-family="sans-serif" font-size="14" font-weight="bold" lengthAdjust="spacing" textLength="64.3158" x="10" y="23.5679">Frontend</text></g><!--cluster Backend--><g id="cluster_Backend"><path d="M30.5,160.672 L91.5738,160.672 A3.75,3.75 0 0 1 94.0738,163.172 L101.0738,185.7399 L670.5,185.7399 A2.5,2.5 0 0 1 673,188.2399 L673,709.372 A2.5,2.5 0 0 1 670.5,711.872 L30.5,711.872 A2.5,2.5 0 0 1 28,709.372 L28,163.172 A2.5,2.5 0 0 1 30.5,160.672 " fill="none" style="stroke:#000000;stroke-width:1.5;"/><line style="stroke:#000000;stroke-width:1.5;" x1="28" x2="101.0738" y1="185.7399" y2="185.7399"/><text fill="#000000" font-family="sans-serif" font-size="14" font-weight="bold" lengthAdjust="spacing" textLength="60.0738" x="32" y="177.6379">Backend</text></g><!--cluster Nginx--><g id="cluster_Nginx"><path d="M154.5,206.672 L197.3038,206.672 A3.75,3.75 0 0 1 199.8038,209.172 L206.8038,231.7399 L315.5,231.7399 A2.5,2.5 0 0 1 318,234.2399 L318,307.232 A2.5,2.5 0 0 1 315.5,309.732 L154.5,309.732 A2.5,2.5 0 0 1 152,307.232 L152,209.172 A2.5,2.5 0 0 1 154.5,206.672 " fill="none" style="stroke:#000000;stroke-width:1.5;"/><line style="stroke:#000000;stroke-width:1.5;" x1="152" x2="206.8038" y1="231.7399" y2="231.7399"/><text fill="#000000" font-family="sans-serif" font-size="14" font-weight="bold" lengthAdjust="spacing" textLength="41.8038" x="156" y="223.6379">Nginx</text></g><!--cluster Application Layer--><g id="cluster_Application Layer"><path d="M82.5,360.732 L205.8875,360.732 A3.75,3.75 0 0 1 208.3875,363.232 L215.3875,385.7999 L452.5,385.7999 A2.5,2.5 0 0 1 455,388.2999 L455,531.302 A2.5,2.5 0 0 1 452.5,533.802 L82.5,533.802 A2.5,2.5 0 0 1 80,531.302 L80,363.232 A2.5,2.5 0 0 1 82.5,360.732 " fill="none" style="stroke:#000000;stroke-width:1.5;"/><line style="stroke:#000000;stroke-width:1.5;" x1="80" x2="215.3875" y1="385.7999" y2="385.7999"/><text fill="#000000" font-family="sans-serif" font-size="14" font-weight="bold" lengthAdjust="spacing" textLength="122.3875" x="84" y="377.6979">Application Layer</text></g><!--cluster Go Server--><g id="cluster_Go Server"><rect fill="#FFFFFF" height="103.07" rx="7.5" ry="7.5" style="stroke:#000000;stroke-width:1.0;" width="327" x="104" y="406.732"/><text fill="#000000" font-family="sans-serif" font-size="14" font-weight="bold" lengthAdjust="spacing" textLength="67.3817" x="233.8091" y="423.6979">Go Server</text></g><!--cluster Storage Layer--><g id="cluster_Storage Layer"><path d="M149.5,584.802 L247.5056,584.802 A3.75,3.75 0 0 1 250.0056,587.302 L257.0056,609.8699 L390.5,609.8699 A2.5,2.5 0 0 1 393,612.3699 L393,685.372 A2.5,2.5 0 0 1 390.5,687.872 L149.5,687.872 A2.5,2.5 0 0 1 147,685.372 L147,587.302 A2.5,2.5 0 0 1 149.5,584.802 " fill="none" style="stroke:#000000;stroke-width:1.5;"/><line style="stroke:#000000;stroke-width:1.5;" x1="147" x2="257.0056" y1="609.8699" y2="609.8699"/><text fill="#000000" font-family="sans-serif" font-size="14" font-weight="bold" lengthAdjust="spacing" textLength="97.0056" x="151" y="601.7679">Storage Layer</text></g><!--entity User Interface--><g id="elem_User Interface"><rect fill="#F1F1F1" height="49.0679" rx="2.5" ry="2.5" style="stroke:#181818;stroke-width:0.5;" width="133.6736" x="22.16" y="44.602"/><rect fill="#F1F1F1" height="10" style="stroke:#181818;stroke-width:0.5;" width="15" x="135.8336" y="49.602"/><rect fill="#F1F1F1" height="2" style="stroke:#181818;stroke-width:0.5;" width="4" x="133.8336" y="51.602"/><rect fill="#F1F1F1" height="2" style="stroke:#181818;stroke-width:0.5;" width="4" x="133.8336" y="55.602"/><text fill="#000000" font-family="sans-serif" font-size="14" lengthAdjust="spacing" textLength="93.6736" x="37.16" y="79.5679">User Interface</text></g><!--entity Load Balancer--><g id="elem_Load Balancer"><rect fill="#F1F1F1" height="49.0679" rx="2.5" ry="2.5" style="stroke:#181818;stroke-width:0.5;" width="133.3796" x="168.31" y="244.672"/><rect fill="#F1F1F1" height="10" style="stroke:#181818;stroke-width:0.5;" width="15" x="281.6896" y="249.672"/><rect fill="#F1F1F1" height="2" style="stroke:#181818;stroke-width:0.5;" width="4" x="279.6896" y="251.672"/><rect fill="#F1F1F1" height="2" style="stroke:#181818;stroke-width:0.5;" width="4" x="279.6896" y="255.672"/><text fill="#000000" font-family="sans-serif" font-size="14" lengthAdjust="spacing" textLength="93.3796" x="183.31" y="279.6379">Load Balancer</text></g><!--entity API Layer--><g id="elem_API Layer"><rect fill="#F1F1F1" height="49.0679" rx="2.5" ry="2.5" style="stroke:#181818;stroke-width:0.5;" width="101.8098" x="120.1" y="444.732"/><rect fill="#F1F1F1" height="10" style="stroke:#181818;stroke-width:0.5;" width="15" x="201.9098" y="449.732"/><rect fill="#F1F1F1" height="2" style="stroke:#181818;stroke-width:0.5;" width="4" x="199.9098" y="451.732"/><rect fill="#F1F1F1" height="2" style="stroke:#181818;stroke-width:0.5;" width="4" x="199.9098" y="455.732"/><text fill="#000000" font-family="sans-serif" font-size="14" lengthAdjust="spacing" textLength="61.8098" x="135.1" y="479.6979">API Layer</text></g><!--entity Streaming Service--><g id="elem_Streaming Service"><rect fill="#F1F1F1" height="49.0679" rx="2.5" ry="2.5" style="stroke:#181818;stroke-width:0.5;" width="158.5795" x="256.71" y="444.732"/><rect fill="#F1F1F1" height="10" style="stroke:#181818;stroke-width:0.5;" width="15" x="395.2895" y="449.732"/><rect fill="#F1F1F1" height="2" style="stroke:#181818;stroke-width:0.5;" width="4" x="393.2895" y="451.732"/><rect fill="#F1F1F1" height="2" style="stroke:#181818;stroke-width:0.5;" width="4" x="393.2895" y="455.732"/><text fill="#000000" font-family="sans-serif" font-size="14" lengthAdjust="spacing" textLength="118.5795" x="271.71" y="479.6979">Streaming Service</text></g><!--entity PostgreSQL (Blob Storage)--><g id="elem_PostgreSQL (Blob Storage)"><rect fill="#F1F1F1" height="49.0679" rx="2.5" ry="2.5" style="stroke:#181818;stroke-width:0.5;" width="213.7674" x="163.12" y="622.802"/><rect fill="#F1F1F1" height="10" style="stroke:#181818;stroke-width:0.5;" width="15" x="356.8874" y="627.802"/><rect fill="#F1F1F1" height="2" style="stroke:#181818;stroke-width:0.5;" width="4" x="354.8874" y="629.802"/><rect fill="#F1F1F1" height="2" style="stroke:#181818;stroke-width:0.5;" width="4" x="354.8874" y="633.802"/><text fill="#000000" font-family="sans-serif" font-size="14" lengthAdjust="spacing" textLength="173.7674" x="178.12" y="657.7679">PostgreSQL (Blob Storage)</text></g><!--link User Interface to Load Balancer--><g id="link_User Interface_Load Balancer"><path d="M73.03,94.132 C65.15,109.162 58.9,128.652 67,144.672 C90.37,190.862 134.7161,221.2443 174.0261,241.4943 " fill="none" id="User Interface-to-Load Balancer" style="stroke:#181818;stroke-width:1.0;"/><polygon fill="#181818" points="179.36,244.242,173.191,236.5645,174.9151,241.9523,169.5274,243.6764,179.36,244.242" style="stroke:#181818;stroke-width:1.0;"/><text fill="#000000" font-family="sans-serif" font-size="13" lengthAdjust="spacing" textLength="141.5441" x="68" y="140.569">Solicitudes de Usuarios</text></g><!--link Load Balancer to User Interface--><g id="link_Load Balancer_User Interface"><path d="M238.02,244.372 C240.56,213.722 240.32,160.332 214,125.672 C199.78,106.942 183.4644,96.5706 161.9244,88.2206 " fill="none" id="Load Balancer-to-User Interface" style="stroke:#181818;stroke-width:1.0;"/><polygon fill="#181818" points="156.33,86.052,163.2758,93.0345,160.992,87.8592,166.1673,85.5754,156.33,86.052" style="stroke:#181818;stroke-width:1.0;"/><text fill="#000000" font-family="sans-serif" font-size="13" lengthAdjust="spacing" textLength="121.2121" x="225" y="140.569">Enviar HLS a Cliente</text></g><!--link Load Balancer to API Layer--><g id="link_Load Balancer_API Layer"><path d="M195.6,293.992 C184.97,302.562 174.81,313.242 169,325.732 C151.14,364.102 156.7269,408.9552 163.2769,438.3952 " fill="none" id="Load Balancer-to-API Layer" style="stroke:#181818;stroke-width:1.0;"/><polygon fill="#181818" points="164.58,444.252,166.5299,434.5981,163.4941,439.3713,158.7209,436.3355,164.58,444.252" style="stroke:#181818;stroke-width:1.0;"/><text fill="#000000" font-family="sans-serif" font-size="13" lengthAdjust="spacing" textLength="121.1731" x="170" y="340.629">Redirigir Solicitudes</text></g><!--link API Layer to PostgreSQL (Blob Storage)--><g id="link_API Layer_PostgreSQL (Blob Storage)"><path d="M119.78,493.592 C86.34,512.202 52.25,539.862 72,568.802 C92.91,599.452 122.2088,616.1428 157.0188,627.3528 " fill="none" id="API Layer-to-PostgreSQL (Blob Storage)" style="stroke:#181818;stroke-width:1.0;"/><polygon fill="#181818" points="162.73,629.192,155.3894,622.6258,157.9707,627.6593,152.9371,630.2406,162.73,629.192" style="stroke:#181818;stroke-width:1.0;"/><text fill="#000000" font-family="sans-serif" font-size="13" lengthAdjust="spacing" textLength="244.5172" x="73" y="564.699">Almacenar nuevo contenido multimedia</text></g><!--link Streaming Service to PostgreSQL (Blob Storage)--><g id="link_Streaming Service_PostgreSQL (Blob Storage)"><path d="M336.99,494.152 C337.05,514.612 335.23,544.532 326,568.802 C318.45,588.672 308.3105,603.4589 296.1905,617.8789 " fill="none" id="Streaming Service-to-PostgreSQL (Blob Storage)" style="stroke:#181818;stroke-width:1.0;"/><polygon fill="#181818" points="292.33,622.472,301.1828,618.156,295.5471,618.6444,295.0587,613.0087,292.33,622.472" style="stroke:#181818;stroke-width:1.0;"/><text fill="#000000" font-family="sans-serif" font-size="13" lengthAdjust="spacing" textLength="290.8622" x="332.39" y="564.699">Consultar/Recuperar archivos blob y metadatos</text></g><!--link Streaming Service to Load Balancer--><g id="link_Streaming Service_Load Balancer"><path d="M333.41,444.452 C329.29,414.762 319.22,363.352 296,325.732 C288.7,313.912 282.7124,307.0136 272.4524,298.1136 " fill="none" id="Streaming Service-to-Load Balancer" style="stroke:#181818;stroke-width:1.0;"/><polygon fill="#181818" points="267.92,294.182,272.0975,303.101,271.697,297.4583,277.3396,297.0578,267.92,294.182" style="stroke:#181818;stroke-width:1.0;"/><text fill="#000000" font-family="sans-serif" font-size="13" lengthAdjust="spacing" textLength="155.0901" x="306.52" y="340.629">Entregar fragmentos HLS</text></g><!--SRC=[ZL5DJzj04BtlhvZkgJqWn85B3qX952YIXI0kwY7AOV1Ed17hNMjsdHPL_FUERGX90AcM3zQRzpNZBuxM70WMyzdFoSrLCJScFN9eKR01eIfZg3t1NmFwJB5wh2LsmSsYZmA_Dfnfd4Hn92CwzKeRqCL8bK02P-S3L6xGnTySQbYZJsIUZMcLZZM1lPGOCWLdXxZbVLBPjIAonefM00ValikEg-zkS5Dp-6DV6Y-BY4vxUmmLoKenzTWZJzhMSuMPOu02dqXUXM-hswi89SdsRQQsazlhaRzwHSeiX4s_M4zcBJnCdjz5bZbA_t4GjxoDATT2vLq1NwS-Fi0BxTlOMItiuJqid9nSW3tOptw7Cke-d3j72Hp1VUfGE2PpH1p5korKk237mZNBleNPeuoIJtkgnSGtMYoWGEXe6w4QVYUx24tdCpUQWCQ-EzH_ECzYI6g1ShgWgcj9D0Ebsl0s9dZeoK_GK4Q7kT_riuZZOys34clrMcjGGq75yACeFpxMqVbxzPPLgm90c7bMFVq3]--></g></svg>